<?xml version="1.0" encoding="UTF-8"?>
<svg version="1.1" xmlns="http://www.w3.org/2000/svg" width="1144" height="355">
<path d="M0 0 C377.52 0 755.04 0 1144 0 C1144 117.15 1144 234.3 1144 355 C766.48 355 388.96 355 0 355 C0 237.85 0 120.7 0 0 Z " fill="#FEFEFE" transform="translate(0,0)"/>
<path d="M0 0 C5.16618192 3.64878044 8.30579704 8.68497943 10.30078125 14.625 C11.2065757 21.67123819 10.67294878 27.87279076 6.30078125 33.625 C3.79505409 36.17870917 1.11274568 38.41752696 -1.69921875 40.625 C-6.11250076 43.90454354 -6.11250076 43.90454354 -8.69921875 48.625 C-8.0249585 48.60405273 -7.35069824 48.58310547 -6.65600586 48.56152344 C31.20945004 47.56431666 93.03401342 46.77012187 122.55297852 73.67797852 C124.59815441 75.95626846 124.86858205 76.97854446 124.86328125 80 C124.65504066 83.85560606 123.83404195 86.39641563 121.01953125 89.2265625 C105.58543477 101.78430464 84.21893844 104.07936335 65.30078125 107.625 C64.40182129 107.79805664 63.50286133 107.97111328 62.57666016 108.14941406 C39.08715024 112.5516173 14.15553472 112.91193391 -9.69921875 112.625 C-8.97836034 120.53550983 -8.97836034 120.53550983 -5.57421875 127.5 C-3.97316333 128.68338879 -2.36555771 129.8584964 -0.734375 131 C5.19827633 135.24234285 8.80579146 139.23310602 10.30078125 146.625 C11.02023248 153.56003813 10.28194538 158.82832129 6.30078125 164.625 C2.16742062 169.41099651 -2.10262119 173.2106207 -8.46875 174.2265625 C-9.81590735 174.26405235 -11.16420359 174.27100732 -12.51171875 174.25 C-13.21514404 174.24524658 -13.91856934 174.24049316 -14.64331055 174.2355957 C-21.05066631 173.98379113 -25.11450285 171.95676606 -29.69921875 167.625 C-30.23546875 167.13644531 -30.77171875 166.64789063 -31.32421875 166.14453125 C-35.80514526 161.19259826 -36.1905521 154.57673657 -35.98046875 148.23046875 C-35.24450756 141.41260608 -31.62426691 136.18438333 -26.69921875 131.625 C-24.859375 130.47265625 -24.859375 130.47265625 -23.01171875 129.5 C-19.34619763 127.42517672 -18.21866725 126.50803506 -16.69921875 122.625 C-16.18307044 119.29814304 -15.888437 115.98525515 -15.69921875 112.625 C-17.36017578 112.65980469 -17.36017578 112.65980469 -19.0546875 112.6953125 C-48.72004276 113.11474554 -78.21049963 109.92949384 -107.19921875 103.6875 C-108.2783252 103.45901367 -109.35743164 103.23052734 -110.46923828 102.99511719 C-122.34448056 100.30687146 -136.27712411 95.79457212 -144.82421875 86.625 C-147.03513248 83.08753803 -147.61461597 81.70267851 -146.69921875 77.625 C-139.72329441 66.20985107 -124.75068061 61.74892167 -112.421875 58.7109375 C-110.848856 58.34377975 -109.27460795 57.98185075 -107.69921875 57.625 C-106.9088623 57.44485352 -106.11850586 57.26470703 -105.30419922 57.07910156 C-76.71145901 50.70209598 -46.99064851 47.84157394 -17.69921875 48.625 C-19.03799314 44.2442327 -20.54354146 42.73948252 -24.44921875 40.4375 C-29.9694476 36.70934544 -33.48219189 32.9827774 -35.69921875 26.625 C-36.68653324 20.21826586 -36.94894708 13.88827729 -33.63671875 8.125 C-25.00270543 -3.20866255 -12.81360057 -7.01459938 0 0 Z " fill="#F7FDFE" transform="translate(204.69921875,95.375)"/>
<path d="M0 0 C8.56297657 -0.06980773 17.12583231 -0.1229663 25.68902397 -0.15543652 C29.666158 -0.17102819 33.64309596 -0.19214604 37.62011719 -0.22631836 C41.4651085 -0.25914583 45.30991236 -0.27690176 49.15503311 -0.28463173 C50.61490958 -0.29013361 52.07477692 -0.30087635 53.5345726 -0.31719017 C65.70707171 -0.44769322 76.56012387 0.62648024 86 9 C92.86065137 17.05210037 95.49687142 24.11645967 95.31640625 34.6796875 C94.39080447 44.39279261 89.03501841 52.48609407 82 59 C82.556875 59.20753906 83.11375 59.41507813 83.6875 59.62890625 C93.24256252 63.48643994 100.33288116 69.72697043 105 79 C108.01539502 87.19853945 108.03997739 97.46758131 105.0234375 105.6484375 C100.06417832 115.0230371 93.50916103 121.60344906 83.40356445 125.08886719 C74.94259429 127.62896841 66.84977787 127.50611869 58.10546875 127.390625 C56.42011697 127.38314531 54.73475637 127.37746057 53.0493927 127.37347412 C48.65822449 127.35835346 44.26760317 127.31919264 39.87664795 127.2746582 C35.37812697 127.23340891 30.87951581 127.21540041 26.38085938 127.1953125 C17.58699132 127.15268193 8.79356408 127.08460008 0 127 C0 125.02 0 123.04 0 121 C0.66 121 1.32 121 2 121 C2.2475 120.360625 2.495 119.72125 2.75 119.0625 C4.10092417 115.75273579 5.58642106 112.5204258 7.09765625 109.28125 C9.01935275 104.42293505 9.15693648 99.63052132 9.17700195 94.46264648 C9.18357315 93.72041336 9.19014435 92.97818024 9.19691467 92.2134552 C9.2165628 89.76600016 9.22829406 87.31860637 9.23828125 84.87109375 C9.24235678 84.03011705 9.2464323 83.18914036 9.25063133 82.32267952 C9.27146048 77.86738459 9.28577327 73.41212013 9.29516602 68.95678711 C9.30619675 64.38307921 9.34056687 59.8098623 9.38033772 55.23632717 C9.40664268 51.69555332 9.41487029 48.15489378 9.41844749 44.61403084 C9.42328122 42.92972579 9.434802 41.24542471 9.45348549 39.56121635 C9.57333159 28.0374606 9.23531262 17.56752064 2 8 C2 7.34 2 6.68 2 6 C1.34 6 0.68 6 0 6 C0 4.02 0 2.04 0 0 Z " fill="#436172" transform="translate(722,100)"/>
<path d="M0 0 C-0.14194764 2.06277107 -0.28872216 4.12521031 -0.4375 6.1875 C-0.55931641 7.91033203 -0.55931641 7.91033203 -0.68359375 9.66796875 C-0.95403812 12.51598171 -1.37521747 15.21210482 -2 18 C-2.61746094 17.9278125 -3.23492188 17.855625 -3.87109375 17.78125 C-14.03724963 16.45765282 -14.03724963 16.45765282 -24 18 C-23.55269531 18.4846875 -23.10539062 18.969375 -22.64453125 19.46875 C-12.98506385 30.17860724 -10.06063849 38.43041254 -10.76464844 52.83007812 C-11.27669242 57.55108118 -13.30375636 61.18618291 -16 65 C-16.598125 65.928125 -17.19625 66.85625 -17.8125 67.8125 C-24.9860397 74.9860397 -33.49568982 78.14695329 -43.5 78.375 C-49.43755853 78.26865567 -53.63605922 77.42895431 -59 75 C-60.32 75 -61.64 75 -63 75 C-65.2338456 77.80848217 -65.2338456 77.80848217 -65.1875 80.9375 C-63.86532659 84.34731563 -63.55015934 84.61961543 -60.421875 86.125 C-53.61380094 88.95736926 -46.32528029 88.82093307 -39.0625 89.0625 C-14.14936912 89.95602698 -14.14936912 89.95602698 -5.41015625 98.56640625 C-0.04016688 104.43531884 2.73803024 110.39176951 2.48046875 118.4375 C1.38458289 124.28222457 -2.26708788 128.47338694 -6.625 132.3125 C-23.68296624 140.84148312 -42.85311813 140.98344349 -61 136 C-68.85246051 133.03238181 -76.20849412 128.7825647 -80 121 C-80.99636382 117.81163577 -81.13424308 114.8946313 -81.125 111.5625 C-81.12886719 110.17224609 -81.12886719 110.17224609 -81.1328125 108.75390625 C-81 106 -81 106 -80.37109375 103.328125 C-79.68749597 100.76145647 -79.68749597 100.76145647 -81.9375 98.1875 C-84.00630285 94.99025923 -84.72981868 92.95927374 -84.50390625 89.140625 C-82.6013003 81.05823693 -75.78434107 75.21986015 -69 71 C-68.34 71 -67.68 71 -67 71 C-67.44730469 70.5153125 -67.89460937 70.030625 -68.35546875 69.53125 C-77.34338821 59.56596617 -80.79040715 52.3575924 -80.17919922 38.98095703 C-79.51173075 31.60242952 -75.649339 24.72699794 -70 20 C-58.83008488 12.92678727 -47.58677423 11.11119683 -34.58984375 13.671875 C-32.34016183 14.35810891 -30.16599576 15.08571033 -28 16 C-27.67 15.154375 -27.34 14.30875 -27 13.4375 C-20.92053067 2.9884121 -11.67009231 -0.63398892 0 0 Z " fill="#446272" transform="translate(1078,126)"/>
<path d="M0 0 C5.81387987 5.17983382 10.20148106 10.62401202 13.11328125 17.8828125 C13.47035156 18.74132812 13.82742188 19.59984375 14.1953125 20.484375 C16.79820361 30.12061019 16.95620504 43.8303466 12.37109375 52.82421875 C11.95601562 53.50355469 11.5409375 54.18289062 11.11328125 54.8828125 C10.67757812 55.65496094 10.241875 56.42710937 9.79296875 57.22265625 C4.21958909 66.37457203 -3.17454581 71.6525512 -12.88671875 75.8828125 C-13.66660156 76.23730469 -14.44648437 76.59179688 -15.25 76.95703125 C-26.21133259 80.80567691 -41.48048537 80.44349309 -52.21484375 76.203125 C-64.80181863 69.9832456 -72.89965642 60.93907011 -77.88671875 47.8828125 C-79.37874842 43.40672349 -79.15290628 39.01022236 -79.19921875 34.3203125 C-79.22822266 33.36833984 -79.25722656 32.41636719 -79.28710938 31.43554688 C-79.39042776 19.76056977 -74.86600339 11.045722 -66.8515625 2.78515625 C-48.84989 -14.20054884 -19.62797429 -15.24054474 0 0 Z " fill="#436172" transform="translate(965.88671875,149.1171875)"/>
<path d="M0 0 C0 0.66 0 1.32 0 2 C-0.81561401 2.01401855 -0.81561401 2.01401855 -1.64770508 2.02832031 C-54.51837872 2.22069926 -54.51837872 2.22069926 -101 23 C-102.49105779 25.98211558 -102.50994661 27.68534705 -102 31 C-91.4466221 44.9192393 -66.31364081 46.5572825 -50.5 49.25 C-49.06974487 49.49472046 -49.06974487 49.49472046 -47.6105957 49.74438477 C-35.42690897 51.7198052 -23.28742147 52.15755301 -10.9609375 52.16796875 C-9.54529795 52.17119702 -8.1296587 52.17456214 -6.71401978 52.17805481 C-3.76425404 52.18399279 -0.81451737 52.18590034 2.13525391 52.18530273 C5.1177377 52.18522165 8.10006733 52.19214459 11.08251953 52.20581055 C31.95058728 52.29984187 52.11299384 51.59734074 72.6875 47.6875 C73.83669922 47.4702124 74.98589844 47.2529248 76.16992188 47.02905273 C97.27330994 43.28650868 97.27330994 43.28650868 114.77734375 32.02734375 C116.26214246 29.91050056 116.26214246 29.91050056 116.25 26.625 C114.19961885 20.67889465 109.51195415 18.77503419 104.11035156 16.04492188 C97.85770489 13.07286257 91.47964348 11.41849155 84.75 9.875 C83.63391357 9.61493164 82.51782715 9.35486328 81.36791992 9.08691406 C73.94200244 7.38280086 66.58190825 5.81705384 59 5 C57.89615967 4.8769751 57.89615967 4.8769751 56.77001953 4.75146484 C41.21161304 3.05468441 25.63817652 2.44106758 10 2 C10 1.34 10 0.68 10 0 C47.93820869 -1.2340716 110.63038353 -1.94862926 140.25219727 25.05297852 C142.29737316 27.33126846 142.5678008 28.35354446 142.5625 31.375 C142.35425941 35.23060606 141.5332607 37.77141563 138.71875 40.6015625 C123.28465352 53.15930464 101.91815719 55.45436335 83 59 C81.65156006 59.25958496 81.65156006 59.25958496 80.27587891 59.52441406 C56.78636899 63.9266173 31.85475347 64.28693391 8 64 C8.72085841 71.91050983 8.72085841 71.91050983 12.125 78.875 C13.72605542 80.05838879 15.33366104 81.2334964 16.96484375 82.375 C22.89749508 86.61734285 26.50501021 90.60810602 28 98 C28.71945123 104.93503813 27.98116413 110.20332129 24 116 C19.86663937 120.78599651 15.59659756 124.5856207 9.23046875 125.6015625 C7.8833114 125.63905235 6.53501516 125.64600732 5.1875 125.625 C4.48407471 125.62024658 3.78064941 125.61549316 3.0559082 125.6105957 C-3.35144756 125.35879113 -7.4152841 123.33176606 -12 119 C-12.53625 118.51144531 -13.0725 118.02289063 -13.625 117.51953125 C-18.10592651 112.56759826 -18.49133335 105.95173657 -18.28125 99.60546875 C-17.54528881 92.78760608 -13.92504816 87.55938333 -9 83 C-7.16015625 81.84765625 -7.16015625 81.84765625 -5.3125 80.875 C-1.64697888 78.80017672 -0.5194485 77.88303506 1 74 C1.51614831 70.67314304 1.81078175 67.36025515 2 64 C0.33904297 64.03480469 0.33904297 64.03480469 -1.35546875 64.0703125 C-31.02082401 64.48974554 -60.51128088 61.30449384 -89.5 55.0625 C-90.57910645 54.83401367 -91.65821289 54.60552734 -92.77001953 54.37011719 C-104.64526181 51.68187146 -118.57790536 47.16957212 -127.125 38 C-129.33591373 34.46253803 -129.91539722 33.07767851 -129 29 C-122.02407566 17.58485107 -107.05146186 13.12392167 -94.72265625 10.0859375 C-93.14963725 9.71877975 -91.5753892 9.35685075 -90 9 C-88.81446533 8.72978027 -88.81446533 8.72978027 -87.60498047 8.45410156 C-59.01224026 2.07709598 -29.29142976 -0.78342606 0 0 Z " fill="#25C7F7" transform="translate(187,144)"/>
<path d="M0 0 C6.6 0 13.2 0 20 0 C27.48672277 18.25431716 34.8086596 36.56459569 42 54.9375 C42.91650075 57.27545567 43.83316737 59.61334633 44.75 61.95117188 C45.20383057 63.10984772 45.65766113 64.26852356 46.12524414 65.46231079 C47.03770416 67.78702996 47.9535288 70.11043146 48.87280273 72.4324646 C51.01080163 77.84592532 53.11397565 83.26490634 55.08694458 88.74055004 C55.78052118 90.65953895 56.48603732 92.57371729 57.1953125 94.48695374 C58.07713915 96.87630045 58.93695468 99.27394213 59.76953125 101.68089294 C62.9153619 110.09553106 67.74828498 116.87414249 76 121 C76 122.98 76 124.96 76 127 C63.13 127 50.26 127 37 127 C37 122 37 122 39.5 119.25 C42.40688521 116.01773251 42.4270122 113.68090595 42.30664062 109.44726562 C41.79288581 105.34704407 40.22277528 101.84991953 38.5 98.125 C37.83925568 96.65044318 37.18280843 95.17395123 36.53125 93.6953125 C36.23798828 93.05609863 35.94472656 92.41688477 35.64257812 91.75830078 C35 90 35 90 35 87 C14.87 87 -5.26 87 -26 87 C-26.33 88.65 -26.66 90.3 -27 92 C-27.51483335 93.38526317 -28.07004584 94.75617448 -28.6640625 96.109375 C-28.98117187 96.86476563 -29.29828125 97.62015625 -29.625 98.3984375 C-30.2872566 99.9557753 -30.9616152 101.5080266 -31.6484375 103.0546875 C-33.9155114 108.53654651 -34.68066786 113.19853788 -33 119 C-32.34 119.66 -31.68 120.32 -31 121 C-31 122.98 -31 124.96 -31 127 C-38.26 127 -45.52 127 -53 127 C-53 121 -53 121 -51.390625 118.98046875 C-50.68421875 118.38878906 -49.9778125 117.79710937 -49.25 117.1875 C-44.7585764 113.41969464 -43.12365445 109.32854878 -41 104 C-40.52820313 102.82928955 -40.05640625 101.6585791 -39.5703125 100.45239258 C-37.81799098 96.080487 -36.09657257 91.69658313 -34.375 87.3125 C-33.72269903 85.65571283 -33.0702708 83.99897576 -32.41772461 82.34228516 C-28.69721265 72.89054522 -24.9932126 63.43234624 -21.29296875 53.97265625 C-20.89857605 52.96441299 -20.50418335 51.95616974 -20.09783936 50.91737366 C-18.17798699 46.00846907 -16.25944674 41.09905803 -14.34326172 36.1887207 C-9.62322591 24.10081927 -4.83355344 12.04301365 0 0 Z " fill="#456273" transform="translate(437,100)"/>
<path d="M0 0 C12.42175001 5.70797015 19.96221385 17.18703396 24.6171875 29.57421875 C27.92118459 39.58281812 28.40815667 51.4441343 24.6796875 61.38671875 C21.39719191 67.85587064 17.45277245 72.44462085 10.6796875 75.38671875 C3.50699882 76.42487106 -2.6933121 74.95139148 -8.57421875 70.79296875 C-19.39148478 61.86094536 -26.61427847 48.32794631 -28.3203125 34.38671875 C-29.71203761 14.34146681 -29.71203761 14.34146681 -24.3203125 6.38671875 C-17.52663294 -0.95166563 -9.836576 -2.59990308 0 0 Z " fill="#FDFDFD" transform="translate(935.3203125,146.61328125)"/>
<path d="M0 0 C5.16618192 3.64878044 8.30579704 8.68497943 10.30078125 14.625 C11.2065757 21.67123819 10.67294878 27.87279076 6.30078125 33.625 C3.79505409 36.17870917 1.11274568 38.41752696 -1.69921875 40.625 C-6.11250076 43.90454354 -6.11250076 43.90454354 -8.69921875 48.625 C-9.16151532 52.74019733 -9.49177349 56.35002064 -7.26171875 59.9375 C-0.36559625 64.47884896 6.46142912 66.27457963 14.54003906 67.49829102 C18.94353374 68.20179194 22.46407382 69.340284 26.30078125 71.625 C27.67578125 73.8125 27.67578125 73.8125 28.30078125 75.625 C19.84192125 83.801898 6.70794811 83.75253822 -4.3984375 83.86328125 C-5.19594925 83.871353 -5.993461 83.87942474 -6.81513977 83.88774109 C-8.49156598 83.9014661 -10.16801877 83.91223909 -11.84448242 83.92016602 C-13.53044036 83.93166155 -15.21636259 83.95207493 -16.90209961 83.98168945 C-42.67136165 84.43245637 -42.67136165 84.43245637 -52.69921875 75.625 C-51.05081785 71.76257044 -49.13873167 70.29560699 -45.30078125 68.48828125 C-42.14623005 67.44150075 -39.12432347 67.07215273 -35.82421875 66.6875 C-29.40381409 65.91428998 -24.04583873 64.34774986 -18.69921875 60.625 C-15.99064717 56.56214263 -16.06847201 53.39246239 -16.69921875 48.625 C-18.68008735 44.23263919 -21.07231914 42.29773518 -25.07421875 39.875 C-30.40953989 36.4533395 -33.56005508 32.62430863 -35.69921875 26.625 C-36.69217466 20.2211539 -36.94747338 13.88571306 -33.63671875 8.125 C-25.00270543 -3.20866255 -12.81360057 -7.01459938 0 0 Z " fill="#24C6F7" transform="translate(204.69921875,95.375)"/>
<path d="M0 0 C6.0225 -0.12375 12.045 -0.2475 18.25 -0.375 C20.12461914 -0.42962402 21.99923828 -0.48424805 23.93066406 -0.54052734 C34.89400664 -0.72639279 43.62178787 0.38784865 52.21362305 7.94775391 C57.51735191 13.29859804 61.0754557 20.47465489 61.4375 28.0625 C60.41568119 37.25886926 57.11473704 44.79827613 49.85546875 50.76171875 C42.7187295 55.782968 36.04937791 57.31409475 27.44140625 57.1953125 C26.7407605 57.19329834 26.04011475 57.19128418 25.3182373 57.18920898 C22.73292371 57.17884588 20.14770438 57.15092431 17.5625 57.125 C11.766875 57.08375 5.97125 57.0425 0 57 C0 38.19 0 19.38 0 0 Z " fill="#FBFCFC" transform="translate(751,164)"/>
<path d="M0 0 C11.22 0 22.44 0 34 0 C34 7 34 7 33 9.375 C30.78259483 15.19568858 31.48388153 20.29699962 33.9765625 25.91796875 C36.49397222 31.76475471 38.87179141 37.65619489 41.20703125 43.578125 C41.76624016 44.9938102 41.76624016 44.9938102 42.33674622 46.43809509 C43.49630727 49.37501245 44.65443087 52.31249409 45.8125 55.25 C46.60862038 57.26696797 47.4048435 59.28389539 48.20117188 61.30078125 C50.13529953 66.20005389 52.0681579 71.09982572 54 76 C58.46618835 65.59322634 62.51560596 55.0269312 66.58544922 44.46069336 C67.7596082 41.41255695 68.93625771 38.36539066 70.11328125 35.31835938 C70.86212294 33.37765964 71.61082598 31.43690639 72.359375 29.49609375 C72.71038269 28.58677597 73.06139038 27.67745819 73.42303467 26.74058533 C73.74717346 25.89863113 74.07131226 25.05667694 74.40527344 24.18920898 C74.68997498 23.45041 74.97467651 22.71161102 75.26800537 21.95042419 C76.84558868 17.74690064 77.24131519 14.5045503 77 10 C76.01 8.515 76.01 8.515 75 7 C75 4.69 75 2.38 75 0 C81.93 0 88.86 0 96 0 C96 2.31 96 4.62 96 7 C94.1869812 8.65757751 94.1869812 8.65757751 91.77685547 9.83569336 C86.22877613 13.12890313 84.67222122 16.68604424 82.5703125 22.62890625 C82.21277893 23.56422684 81.85524536 24.49954742 81.48687744 25.46321106 C80.33846465 28.48667243 79.23163076 31.52352767 78.125 34.5625 C77.34336002 36.64310711 76.55900317 38.72269551 75.77197266 40.80126953 C74.21312204 44.93134655 72.67022355 49.06677662 71.14257812 53.20849609 C69.25837543 58.314677 67.33704986 63.4055324 65.390625 68.48828125 C64.86699019 69.85667623 64.34338841 71.22508386 63.81982422 72.59350586 C63.57746033 73.22690887 63.33509644 73.86031189 63.08538818 74.51290894 C61.37279208 79.00201781 59.68784986 83.50154552 58 88 C51.4 88 44.8 88 38 88 C32.88491503 75.65360986 27.84931789 63.28520346 23.0703125 50.8046875 C22.73796097 49.93681107 22.40560944 49.06893463 22.06318665 48.17475891 C20.41100877 43.85420441 18.76621594 39.53095109 17.12866211 35.20483398 C16.51419713 33.59096899 15.89969674 31.97711749 15.28515625 30.36328125 C15.01256989 29.63708588 14.73998352 28.9108905 14.45913696 28.16268921 C11.32925935 19.96260264 8.37595081 13.80874649 1.609375 8.0546875 C0 6 0 6 0 0 Z " fill="#466374" transform="translate(515,139)"/>
<path d="M0 0 C8.58 0 17.16 0 26 0 C26.0093457 3.0218042 26.01869141 6.0436084 26.02832031 9.15698242 C26.06219935 19.17940638 26.11780886 29.2016268 26.18390274 39.22388744 C26.22328744 45.29599726 26.25552011 51.36796399 26.27099609 57.44018555 C26.28622194 63.30832392 26.32077262 69.17606872 26.36830902 75.04403114 C26.3830618 77.27449419 26.39103748 79.50501345 26.39188385 81.73552513 C26.00953661 100.9899245 26.00953661 100.9899245 33.25 118.4375 C35 121 35 121 35 127 C23.45 127 11.9 127 0 127 C0 121.22346446 0.35223717 119.61196441 2.9375 114.8125 C6.08208743 108.9024598 7.15368176 104.67879843 7.17700195 98.01538086 C7.18357315 97.20195221 7.19014435 96.38852356 7.19691467 95.55044556 C7.2166415 92.85524398 7.22831184 90.16009825 7.23828125 87.46484375 C7.24235678 86.54230867 7.2464323 85.6197736 7.25063133 84.66928291 C7.27149419 79.78188425 7.2857923 74.89451364 7.29516602 70.00708008 C7.30620226 64.97576873 7.34056925 59.94490309 7.38033772 54.91374874 C7.40658014 51.03163371 7.41486484 47.14962336 7.41844749 43.26742744 C7.42329749 41.41400725 7.43486587 39.56059123 7.45348549 37.70725822 C7.99946247 22.44133703 7.99946247 22.44133703 1.36494446 9.18540955 C0 7 0 7 0 0 Z " fill="#446172" transform="translate(840,100)"/>
<path d="M0 0 C8.105625 -0.1546875 8.105625 -0.1546875 16.375 -0.3125 C18.05899902 -0.35802002 19.74299805 -0.40354004 21.47802734 -0.45043945 C31.0931354 -0.60276257 38.74645031 0.11174138 46.12426758 6.9765625 C51.2873106 12.38222058 54.09855565 17.77098818 54.4375 25.3125 C54.15655008 33.84635367 51.25998936 40.39373224 45.26953125 46.4296875 C36.06603685 52.7976819 27.24275019 52.48240414 16.4375 52.25 C11.013125 52.1675 5.58875 52.085 0 52 C0 34.84 0 17.68 0 0 Z " fill="#FCFCFD" transform="translate(751,106)"/>
<path d="M0 0 C25.50691635 -0.97134942 56.9900815 0.59971224 79 15 C81 18 81 18 81.125 21.375 C79.73599314 25.85068876 78.33500015 26.73594729 74.3359375 28.8828125 C73.56507813 29.25148437 72.79421875 29.62015625 72 30 C70.96746094 30.52207031 70.96746094 30.52207031 69.9140625 31.0546875 C61.41665735 34.90088141 52.11997356 36.36907437 43 38 C42.19546387 38.15388184 41.39092773 38.30776367 40.56201172 38.46630859 C5.44979779 44.96336758 -53.91722919 48.31400783 -85.3984375 28.18359375 C-90.61557933 24.32799869 -90.61557933 24.32799869 -91.6875 20.625 C-90.57860101 16.39102203 -87.61167264 14.28875851 -84 12 C-77.70598388 8.73312527 -71.34539976 6.86554929 -64.4375 5.375 C-63.4686084 5.16335205 -62.4997168 4.9517041 -61.50146484 4.73364258 C-45.22200324 1.26789256 -29.61010281 0.72954492 -13 1 C-13 1.33 -13 1.66 -13 2 C-13.61182129 2.03440186 -14.22364258 2.06880371 -14.85400391 2.10424805 C-26.38067637 2.79636346 -37.70960489 3.81227555 -49 6.3125 C-49.88768066 6.50094482 -50.77536133 6.68938965 -51.68994141 6.88354492 C-57.37459913 8.22637319 -62.49779396 10.16636568 -67 14 C-68.12213894 16.65851769 -68.12213894 16.65851769 -68 19 C-54.13312978 32.38870228 -26.76090152 31.39147284 -8.6875 31.3125 C-7.86349701 31.31134186 -7.03949402 31.31018372 -6.19052124 31.30899048 C24.69139481 31.50231648 24.69139481 31.50231648 53.6875 22.3125 C54.51636719 21.87550781 55.34523437 21.43851563 56.19921875 20.98828125 C56.79347656 20.66214844 57.38773438 20.33601563 58 20 C58 18.02 58 16.04 58 14 C43.24432539 6.20629295 29.33833384 3.97368443 12.75 2.875 C11.51636719 2.78863281 10.28273438 2.70226562 9.01171875 2.61328125 C6.0081268 2.40372832 3.00428088 2.19938783 0 2 C0 1.34 0 0.68 0 0 Z " fill="#27C7F7" transform="translate(198,152)"/>
<path d="M0 0 C3.41913068 3.11709891 4.67672922 6.75994659 6.2578125 11.015625 C6.56258011 11.81577026 6.86734772 12.61591553 7.18135071 13.44030762 C8.17008416 16.0407587 9.1476393 18.64525574 10.125 21.25 C11.1353359 23.91820791 12.14813451 26.58547316 13.16093445 29.25274658 C13.83146631 31.01957676 14.50099416 32.78678831 15.16950989 34.55438232 C18.20905314 42.58470696 21.34974344 50.57279925 24.56103516 58.53613281 C24.89022949 59.36467773 25.21942383 60.19322266 25.55859375 61.046875 C25.84017334 61.74651367 26.12175293 62.44615234 26.41186523 63.16699219 C27 65 27 65 27 68 C9.51 68 -7.98 68 -26 68 C-25.3295965 64.64798252 -24.76633805 62.09721607 -23.56054688 59.01782227 C-23.26905762 58.26767853 -22.97756836 57.51753479 -22.67724609 56.74465942 C-22.36094238 55.94333588 -22.04463867 55.14201233 -21.71875 54.31640625 C-21.38891113 53.47173798 -21.05907227 52.6270697 -20.71923828 51.75680542 C-19.6504269 49.02367609 -18.57544188 46.29302637 -17.5 43.5625 C-16.76871014 41.69741368 -16.0375905 39.83226061 -15.30664062 37.96704102 C-10.32041604 25.26339441 -5.25421912 12.59553083 0 0 Z " fill="#F9FAFB" transform="translate(441,112)"/>
<path d="M0 0 C8.25 0 16.5 0 25 0 C25.00410889 1.99708008 25.00821777 3.99416016 25.01245117 6.05175781 C25.02974612 12.69356014 25.07440865 19.33498304 25.13209057 25.97655106 C25.16619806 29.99843873 25.19144497 34.01995312 25.19555664 38.04199219 C25.19987489 41.93272798 25.22862435 45.82262405 25.27343178 49.71309662 C25.2862954 51.1879866 25.29075453 52.66297766 25.28615379 54.13791656 C25.26353786 63.60089861 26.29299475 71.5996452 31 80 C31.66 80.66 32.32 81.32 33 82 C33 83.98 33 85.96 33 88 C22.11 88 11.22 88 0 88 C0 82.54372832 0.18781915 80.88196507 2.4375 76.3125 C4.57878507 71.90181878 6.11886764 68.44404342 6.16113281 63.50366211 C6.17554413 62.14095436 6.17554413 62.14095436 6.19024658 60.75071716 C6.1966214 59.27889732 6.1966214 59.27889732 6.203125 57.77734375 C6.20882507 56.76209122 6.21452515 55.74683868 6.22039795 54.70082092 C6.22985045 52.54803509 6.23638292 50.39523478 6.24023438 48.24243164 C6.24989065 44.97450839 6.28089151 41.70722743 6.3125 38.43945312 C6.31903531 36.34375372 6.3242837 34.24804983 6.328125 32.15234375 C6.3404718 31.18530014 6.3528186 30.21825653 6.36553955 29.22190857 C6.34378834 22.477609 6.02035223 14.477634 1.39581299 9.15293884 C0 7 0 7 0 0 Z " fill="#486575" transform="translate(620,139)"/>
<path d="M0 0 C7.61693568 4.03025881 12.05926196 10.53502469 16 18 C16.54333984 19.02673828 16.54333984 19.02673828 17.09765625 20.07421875 C19.26912998 25.21505656 19.3308498 30.55856807 19.4375 36.0625 C19.45997803 36.81861572 19.48245605 37.57473145 19.50561523 38.35375977 C19.47876795 44.68077074 17.74368718 49.84538447 13.55249023 54.66430664 C10.47761688 57.30979054 6.9672097 57.35140076 3.04296875 57.265625 C-3.05648392 56.47257953 -7.29071609 50.98761011 -11.1015625 46.578125 C-17.2933675 38.16950093 -19.18802116 29.78953039 -19.25 19.625 C-19.270625 18.78710938 -19.29125 17.94921875 -19.3125 17.0859375 C-19.34475731 11.95702465 -18.86685083 8.43306388 -16 4 C-10.5659896 -0.90386305 -7.06205743 -1.91700155 0 0 Z " fill="#FCFDFD" transform="translate(1034,143)"/>
<path d="M0 0 C44.81930317 -0.58681734 44.81930317 -0.58681734 55.5625 6.75 C57.64168367 10.00437444 57.54890371 12.226287 57 16 C53.92437461 19.7442396 48.63239584 21.11678056 44 22 C29.72433049 23.27668589 15.6860503 22.04015212 4 13 C0.0256876 8.55255517 -0.15109311 5.81708462 0 0 Z " fill="#F9FAFA" transform="translate(1008,231)"/>
<path d="M0 0 C4.33976986 2.25334204 7.09688482 4.45366929 9 9 C9.5701247 14.22614305 8.82117855 17.56671942 6 22 C2.09065975 25.62455387 -1.2234004 25.55904266 -6.3671875 25.421875 C-9 25 -9 25 -12.0625 22.75 C-15.48630504 17.89040575 -16.63418719 15.13047618 -16 9 C-12.32317126 1.9187002 -8.0382172 -0.98714948 0 0 Z " fill="#456273" transform="translate(637,106)"/>
<path d="M0 0 C17.49 0 34.98 0 53 0 C53 2.31 53 4.62 53 7 C35.51 7 18.02 7 0 7 C0 4.69 0 2.38 0 0 Z " fill="#496676" transform="translate(661,220)"/>
<path d="M0 0 C22.59955254 -0.7351287 44.58567188 1.37533872 67 4 C66.360625 4.12375 65.72125 4.2475 65.0625 4.375 C64.381875 4.58125 63.70125 4.7875 63 5 C62.67 5.66 62.34 6.32 62 7 C61.31679688 6.87882813 60.63359375 6.75765625 59.9296875 6.6328125 C40.09301318 3.33515564 20.06993518 2.56606329 0 2 C0 1.34 0 0.68 0 0 Z " fill="#4DD1F8" transform="translate(197,144)"/>
<path d="M0 0 C0 0.66 0 1.32 0 2 C-0.89416626 2.02187378 -0.89416626 2.02187378 -1.80639648 2.04418945 C-16.88654779 2.45044198 -31.68538877 3.6991941 -46.63183594 5.74047852 C-49 6 -49 6 -53 6 C-53 5.34 -53 4.68 -53 4 C-53.66 3.67 -54.32 3.34 -55 3 C-36.63207732 1.02516071 -18.47808607 -0.21050984 0 0 Z " fill="#38CCF7" transform="translate(187,144)"/>
<path d="M0 0 C0 0.33 0 0.66 0 1 C-0.66418945 1.0501123 -1.32837891 1.10022461 -2.01269531 1.15185547 C-19.09701882 2.35630615 -19.09701882 2.35630615 -36 5 C-36 4.34 -36 3.68 -36 3 C-37.32 2.67 -38.64 2.34 -40 2 C-26.64779643 -0.19918647 -13.50347777 -0.21987126 0 0 Z " fill="#43CEF8" transform="translate(185,153)"/>
<path d="M0 0 C0.99 0.33 1.98 0.66 3 1 C2.8125 2.875 2.8125 2.875 2 5 C0.7934375 5.4640625 0.7934375 5.4640625 -0.4375 5.9375 C-3.24507417 6.77381806 -3.24507417 6.77381806 -4.3125 9.625 C-4.539375 10.40875 -4.76625 11.1925 -5 12 C-6.32 12 -7.64 12 -9 12 C-8.58424938 7.14957612 -6.58340022 5.15680495 -3 2 C-2.01 1.34 -1.02 0.68 0 0 Z " fill="#EDFAFE" transform="translate(184,98)"/>
<path d="M0 0 C4.0144599 1.3381533 5.35766442 3.76313892 8 7 C8.99 7.66 9.98 8.32 11 9 C11 9.99 11 10.98 11 12 C7.83925445 11.92474415 5.68872933 11.57774204 3.23046875 9.515625 C0.12203004 6.10871794 0.12203004 6.10871794 -1 4 C-0.66015625 1.76953125 -0.66015625 1.76953125 0 0 Z " fill="#EDFAFE" transform="translate(176,250)"/>
<path d="M0 0 C17.85649203 -0.18451025 17.85649203 -0.18451025 26 1 C26 1.33 26 1.66 26 2 C22.52300537 2.80866672 19.47837556 3.07549313 15.91796875 2.87890625 C14.98662109 2.83056641 14.05527344 2.78222656 13.09570312 2.73242188 C12.13599609 2.67634766 11.17628906 2.62027344 10.1875 2.5625 C9.20845703 2.51029297 8.22941406 2.45808594 7.22070312 2.40429688 C4.8134391 2.27512661 2.40664362 2.14018357 0 2 C0 1.34 0 0.68 0 0 Z " fill="#62D6F9" transform="translate(198,152)"/>
<path d="M0 0 C2.52090778 -0.0272367 5.04151457 -0.04695207 7.5625 -0.0625 C8.61920898 -0.07506836 8.61920898 -0.07506836 9.69726562 -0.08789062 C14.24024798 -0.10882603 18.51784892 0.25199318 23 1 C22.360625 1.12375 21.72125 1.2475 21.0625 1.375 C20.381875 1.58125 19.70125 1.7875 19 2 C18.67 2.66 18.34 3.32 18 4 C12.06 3.01 6.12 2.02 0 1 C0 0.67 0 0.34 0 0 Z " fill="#3ECDF8" transform="translate(219,154)"/>
<path d="M0 0 C-0.99 1.485 -0.99 1.485 -2 3 C-4.8203125 3.51171875 -4.8203125 3.51171875 -8.125 3.6875 C-9.76855469 3.78611328 -9.76855469 3.78611328 -11.4453125 3.88671875 C-12.28835937 3.92410156 -13.13140625 3.96148437 -14 4 C-14 3.34 -14 2.68 -14 2 C-14.66 1.67 -15.32 1.34 -16 1 C-10.61509359 0.08342019 -5.45769811 -0.11138159 0 0 Z " fill="#4BD0F8" transform="translate(148,146)"/>
<path d="M0 0 C3.96 0 7.92 0 12 0 C12 0.66 12 1.32 12 2 C9.36 2.33 6.72 2.66 4 3 C4 2.34 4 1.68 4 1 C2.68 0.67 1.36 0.34 0 0 Z " fill="#50D2F8" transform="translate(145,155)"/>
</svg>
